<svg width="688" height="333" viewBox="0 0 688 333" fill="none" xmlns="http://www.w3.org/2000/svg">
<path d="M0.853686 244.15V244.98H1.68417H118.349V281.899V282.73H119.179H181.938H182.768V281.899V244.98H209.778H210.608V244.15V193.188V192.358H209.778H182.768V40.3031V39.4726H181.938H145.962H145.132H120.595H119.764H98.889H98.4329L98.1881 39.8575L0.983345 192.743L0.853686 192.947V193.188V244.15ZM119.165 109.083H119.764V192.358H67.1606V191.541L119.165 109.083ZM342.517 289.336H342.52C364.592 289.336 383.665 284.311 399.704 274.227L399.705 274.226C415.821 264.065 428.231 249.423 436.942 230.339C445.653 211.252 449.993 188.322 449.993 161.576C450.072 134.985 445.772 112.326 437.057 93.6272C428.344 74.934 415.931 60.6859 399.813 50.9192C383.697 41.0747 364.588 36.1695 342.52 36.1695C320.454 36.1695 301.346 41.0349 285.23 50.7997L285.228 50.8006C269.188 60.5677 256.815 74.8162 248.102 93.5092L248.101 93.5119C239.466 112.208 235.127 134.904 235.048 161.571C234.969 188.162 239.269 211.015 247.981 230.103C256.692 249.187 269.102 263.829 285.217 273.99C301.334 284.153 320.445 289.257 342.517 289.336ZM369.653 217.054L369.652 217.055C362.529 228.669 353.489 234.354 342.52 234.354C335.182 234.354 328.652 231.839 322.899 226.777C317.234 221.724 312.736 213.861 309.459 203.093C306.188 192.269 304.579 178.439 304.658 161.578C304.815 136.77 308.47 118.794 315.503 107.512C322.542 96.2177 331.542 90.6797 342.52 90.6797C349.863 90.6797 356.354 93.1584 362.027 98.141L362.031 98.1452C367.694 103.043 372.19 110.671 375.466 121.123C378.735 131.551 380.383 145.025 380.383 161.573L380.383 161.576C380.461 186.932 376.844 205.38 369.653 217.054ZM476.762 244.15V244.98H477.592H594.257V281.899V282.73H595.087H657.846H658.676V281.899V244.98H685.686H686.517V244.15V193.188V192.358H685.686H658.676V40.3031V39.4726H657.846H621.871H621.04H596.503H595.673H574.797H574.341L574.096 39.8575L476.892 192.743L476.762 192.947V193.188V244.15ZM595.074 109.083H595.673V192.358H543.069V191.541L595.074 109.083Z" stroke="white" strokeWidth="1.66097"/>
<path d="M62.0193 235.532V193.498L142.195 67.3952H180.337V123.441H158.542L115.34 191.941V193.498H233.659V235.532H62.0193ZM158.931 266.668V222.688L160.099 204.395V67.3952H210.695V266.668H158.931ZM343.147 272.117C325.049 272.052 309.416 267.868 296.247 259.565C283.079 251.262 272.928 239.294 265.792 223.661C258.657 208.028 255.122 189.281 255.186 167.421C255.251 145.496 258.819 126.879 265.889 111.57C273.025 96.2612 283.144 84.6175 296.247 76.6388C309.416 68.6602 325.049 64.6708 343.147 64.6708C361.245 64.6708 376.878 68.6926 390.046 76.7362C403.214 84.7148 413.366 96.3585 420.501 111.667C427.636 126.976 431.172 145.56 431.107 167.421C431.107 189.411 427.539 208.222 420.404 223.855C413.268 239.489 403.117 251.457 389.948 259.76C376.845 267.998 361.245 272.117 343.147 272.117ZM343.147 228.137C352.488 228.137 360.142 223.272 366.11 213.542C372.142 203.747 375.126 188.373 375.061 167.421C375.061 153.734 373.699 142.544 370.975 133.852C368.25 125.16 364.488 118.738 359.688 114.586C354.888 110.37 349.374 108.262 343.147 108.262C333.806 108.262 326.184 112.997 320.281 122.468C314.378 131.938 311.362 146.923 311.232 167.421C311.167 181.367 312.497 192.849 315.221 201.865C317.946 210.817 321.708 217.434 326.508 221.715C331.373 225.996 336.919 228.137 343.147 228.137ZM454.556 235.532V193.498L534.733 67.3952H572.875V123.441H551.079L507.877 191.941V193.498H626.196V235.532H454.556ZM551.468 266.668V222.688L552.636 204.395V67.3952H603.233V266.668H551.468Z" fill="white"/>
</svg>
