<svg width="680" height="333" viewBox="0 0 680 333" fill="none" xmlns="http://www.w3.org/2000/svg">
<path d="M48.0003 281.266L48.0053 281.268C62.5222 287.852 79.1185 291.134 97.7765 291.134C117.541 291.134 134.779 287.457 149.465 280.074L149.468 280.073C164.143 272.616 175.547 262.331 183.654 249.217C191.844 236.018 195.89 220.921 195.812 203.952C195.89 188.494 192.6 174.824 185.914 162.964C179.317 151.043 170.288 141.695 158.834 134.933C147.447 128.165 134.479 124.791 119.954 124.791C107.575 124.791 96.6648 127.251 87.2474 132.199C78.0452 136.956 71.452 142.972 67.5471 150.272H67.5404L72.1121 98.6115H179.882H180.712V97.781V45.4037V44.5732H179.882H17.5589H16.7853L16.7305 45.3449L7.29318 178.412L7.24127 179.144L7.96128 179.285L65.5292 190.61L66.1671 190.736L66.442 190.146C69.1195 184.409 73.2836 179.936 78.9578 176.715L78.9609 176.714C84.7312 173.405 90.998 171.751 97.7765 171.751C104.337 171.751 110.09 173.178 115.061 176.007L115.069 176.012C120.04 178.765 123.94 182.701 126.777 187.837L126.78 187.842C129.606 192.884 130.998 198.869 130.921 205.83L130.92 205.839L130.921 205.848C130.998 212.727 129.607 218.716 126.777 223.84C123.94 228.977 120.039 232.954 115.065 235.786C110.094 238.538 104.339 239.926 97.7765 239.926C89.2971 239.926 82.0115 237.503 75.8789 232.674C69.8688 227.881 66.749 221.47 66.5196 213.365L66.4968 212.558H65.6895H1.9873H1.14808L1.15686 213.397C1.31581 228.576 5.5312 242.034 13.8138 253.741L13.816 253.744C22.1665 265.435 33.5707 274.606 48.0003 281.266ZM328.487 294.437H328.49C350.562 294.437 369.635 289.412 385.675 279.327L385.675 279.327C401.791 269.165 414.201 254.524 422.912 235.439C431.623 216.353 435.963 193.423 435.963 166.676C436.042 140.085 431.742 117.426 423.027 98.7278C414.314 80.0346 401.901 65.7865 385.783 56.0198C369.667 46.1753 350.558 41.2701 328.49 41.2701C306.424 41.2701 287.316 46.1354 271.2 55.9003L271.198 55.9012C255.158 65.6682 242.785 79.9168 234.072 98.6098L234.071 98.6125C225.436 117.308 221.097 140.004 221.018 166.671C220.939 193.263 225.239 216.116 233.951 235.203C242.662 254.288 255.072 268.929 271.187 279.091C287.304 289.253 306.416 294.358 328.487 294.437ZM355.623 222.155L355.623 222.156C348.499 233.77 339.459 239.455 328.49 239.455C321.152 239.455 314.622 236.939 308.869 231.878C303.204 226.825 298.706 218.961 295.429 208.194C292.158 197.37 290.549 183.54 290.628 166.679C290.785 141.871 294.441 123.895 301.473 112.612C308.512 101.318 317.512 95.7803 328.49 95.7803C335.833 95.7803 342.324 98.259 347.997 103.242L348.001 103.246C353.664 108.143 358.161 115.772 361.436 126.223C364.705 136.652 366.353 150.126 366.353 166.674L366.353 166.676C366.432 192.033 362.814 210.48 355.623 222.155ZM571.145 294.437H571.148C593.22 294.437 612.293 289.412 628.333 279.327L628.333 279.327C644.449 269.165 656.859 254.524 665.57 235.439C674.282 216.353 678.621 193.423 678.621 166.676C678.7 140.085 674.4 117.426 665.685 98.7278C656.972 80.0346 644.559 65.7865 628.441 56.0198C612.325 46.1753 593.216 41.2701 571.148 41.2701C549.082 41.2701 529.974 46.1354 513.858 55.9003L513.856 55.9012C497.816 65.6682 485.443 79.9168 476.73 98.6098L476.729 98.6125C468.094 117.308 463.755 140.004 463.676 166.671C463.597 193.263 467.897 216.116 476.609 235.203C485.32 254.288 497.73 268.929 513.845 279.091C529.962 289.253 549.074 294.358 571.145 294.437ZM598.281 222.155L598.281 222.156C591.158 233.77 582.117 239.455 571.148 239.455C563.81 239.455 557.28 236.939 551.527 231.878C545.862 226.825 541.364 218.961 538.087 208.194C534.816 197.369 533.207 183.539 533.286 166.678C533.443 141.87 537.099 123.895 544.131 112.612C551.17 101.318 560.17 95.7803 571.148 95.7803C578.491 95.7803 584.982 98.259 590.655 103.242L590.66 103.246C596.322 108.143 600.819 115.772 604.094 126.223C607.363 136.652 609.011 150.126 609.011 166.674V166.676C609.09 192.033 605.472 210.48 598.281 222.155Z" stroke="white" stroke-width="1.66097"/>
<path d="M139.752 269.392C124.444 269.392 110.854 266.7 98.9831 261.316C87.1773 255.868 77.8688 248.375 71.0577 238.84C64.3115 229.304 60.8735 218.342 60.7438 205.952H113.286C113.481 212.828 116.141 218.309 121.265 222.396C126.454 226.483 132.617 228.526 139.752 228.526C145.266 228.526 150.131 227.358 154.347 225.023C158.564 222.623 161.872 219.25 164.272 214.904C166.672 210.558 167.84 205.498 167.775 199.725C167.84 193.887 166.672 188.827 164.272 184.546C161.872 180.2 158.564 176.859 154.347 174.524C150.131 172.124 145.266 170.924 139.752 170.924C134.044 170.924 128.757 172.318 123.892 175.108C119.092 177.832 115.557 181.627 113.286 186.492L65.8034 177.151L73.5875 67.3952H207.474V110.597H117.957L114.065 154.577H115.232C118.346 148.544 123.73 143.55 131.384 139.593C139.039 135.571 147.926 133.56 158.045 133.56C169.916 133.56 180.489 136.317 189.765 141.831C199.106 147.344 206.468 154.966 211.852 164.696C217.301 174.362 219.993 185.519 219.928 198.168C219.993 212.05 216.685 224.374 210.004 235.142C203.387 245.846 194.079 254.246 182.078 260.343C170.078 266.376 155.969 269.392 139.752 269.392ZM330.049 272.117C311.951 272.052 296.318 267.868 283.15 259.565C269.982 251.262 259.83 239.294 252.695 223.661C245.559 208.028 242.024 189.281 242.089 167.421C242.154 145.496 245.721 126.879 252.792 111.57C259.927 96.2612 270.047 84.6175 283.15 76.6388C296.318 68.6602 311.951 64.6708 330.049 64.6708C348.147 64.6708 363.78 68.6926 376.948 76.7362C390.116 84.7148 400.268 96.3585 407.403 111.667C414.539 126.976 418.074 145.56 418.009 167.421C418.009 189.411 414.442 208.222 407.306 223.855C400.171 239.489 390.019 251.457 376.851 259.76C363.748 267.998 348.147 272.117 330.049 272.117ZM330.049 228.137C339.39 228.137 347.044 223.272 353.012 213.542C359.045 203.747 362.029 188.373 361.964 167.421C361.964 153.734 360.602 142.544 357.877 133.852C355.153 125.16 351.39 118.738 346.59 114.586C341.79 110.37 336.276 108.262 330.049 108.262C320.708 108.262 313.086 112.997 307.183 122.468C301.28 131.938 298.264 146.923 298.134 167.421C298.069 181.367 299.399 192.849 302.124 201.865C304.848 210.817 308.61 217.434 313.411 221.715C318.276 225.996 323.822 228.137 330.049 228.137ZM530.197 272.117C512.099 272.052 496.466 267.868 483.298 259.565C470.13 251.262 459.978 239.294 452.843 223.661C445.708 208.028 442.172 189.281 442.237 167.421C442.302 145.496 445.87 126.879 452.94 111.57C460.076 96.2612 470.195 84.6175 483.298 76.6388C496.466 68.6602 512.099 64.6708 530.197 64.6708C548.295 64.6708 563.929 68.6926 577.097 76.7362C590.265 84.7148 600.416 96.3585 607.552 111.667C614.687 126.976 618.223 145.56 618.158 167.421C618.158 189.411 614.59 208.222 607.455 223.855C600.319 239.489 590.167 251.457 576.999 259.76C563.896 267.998 548.295 272.117 530.197 272.117ZM530.197 228.137C539.538 228.137 547.193 223.272 553.161 213.542C559.193 203.747 562.177 188.373 562.112 167.421C562.112 153.734 560.75 142.544 558.026 133.852C555.301 125.16 551.539 118.738 546.739 114.586C541.938 110.37 536.425 108.262 530.197 108.262C520.857 108.262 513.235 112.997 507.332 122.468C501.429 131.938 498.412 146.923 498.283 167.421C498.218 181.367 499.548 192.849 502.272 201.865C504.996 210.817 508.759 217.434 513.559 221.715C518.424 225.996 523.97 228.137 530.197 228.137Z" fill="white"/>
</svg>
