<svg width="322" height="322" viewBox="0 0 322 322" fill="none" xmlns="http://www.w3.org/2000/svg">
<g opacity="0.5">
<path d="M5.91884 11.8377C9.18772 11.8377 11.8377 9.18772 11.8377 5.91884C11.8377 2.64995 9.18772 0 5.91884 0C2.64995 0 0 2.64995 0 5.91884C0 9.18772 2.64995 11.8377 5.91884 11.8377Z" fill="#B3B3B3"/>
<path d="M5.91884 59.6756C9.18772 59.6756 11.8377 57.0256 11.8377 53.7567C11.8377 50.4878 9.18772 47.8379 5.91884 47.8379C2.64995 47.8379 0 50.4878 0 53.7567C0 57.0256 2.64995 59.6756 5.91884 59.6756Z" fill="#B3B3B3"/>
<path d="M5.91884 155.351C9.18772 155.351 11.8377 152.701 11.8377 149.433C11.8377 146.164 9.18772 143.514 5.91884 143.514C2.64995 143.514 0 146.164 0 149.433C0 152.701 2.64995 155.351 5.91884 155.351Z" fill="#B3B3B3"/>
<path d="M5.91884 251.027C9.18772 251.027 11.8377 248.377 11.8377 245.108C11.8377 241.839 9.18772 239.189 5.91884 239.189C2.64995 239.189 0 241.839 0 245.108C0 248.377 2.64995 251.027 5.91884 251.027Z" fill="#B3B3B3"/>
<path d="M5.91884 298.865C9.18772 298.865 11.8377 296.215 11.8377 292.946C11.8377 289.677 9.18772 287.027 5.91884 287.027C2.64995 287.027 0 289.677 0 292.946C0 296.215 2.64995 298.865 5.91884 298.865Z" fill="#B3B3B3"/>
<path d="M5.91884 107.513C9.18772 107.513 11.8377 104.864 11.8377 101.595C11.8377 98.3257 9.18772 95.6758 5.91884 95.6758C2.64995 95.6758 0 98.3257 0 101.595C0 104.864 2.64995 107.513 5.91884 107.513Z" fill="#B3B3B3"/>
<path d="M5.91884 203.189C9.18772 203.189 11.8377 200.539 11.8377 197.27C11.8377 194.002 9.18772 191.352 5.91884 191.352C2.64995 191.352 0 194.002 0 197.27C0 200.539 2.64995 203.189 5.91884 203.189Z" fill="#B3B3B3"/>
<path d="M57.5097 11.8377C60.7785 11.8377 63.4285 9.18772 63.4285 5.91884C63.4285 2.64995 60.7785 0 57.5097 0C54.2408 0 51.5908 2.64995 51.5908 5.91884C51.5908 9.18772 54.2408 11.8377 57.5097 11.8377Z" fill="#B3B3B3"/>
<path d="M57.5097 59.6756C60.7785 59.6756 63.4285 57.0256 63.4285 53.7567C63.4285 50.4878 60.7785 47.8379 57.5097 47.8379C54.2408 47.8379 51.5908 50.4878 51.5908 53.7567C51.5908 57.0256 54.2408 59.6756 57.5097 59.6756Z" fill="#B3B3B3"/>
<path d="M57.5097 155.351C60.7785 155.351 63.4285 152.701 63.4285 149.433C63.4285 146.164 60.7785 143.514 57.5097 143.514C54.2408 143.514 51.5908 146.164 51.5908 149.433C51.5908 152.701 54.2408 155.351 57.5097 155.351Z" fill="#B3B3B3"/>
<path d="M57.5097 251.027C60.7785 251.027 63.4285 248.377 63.4285 245.108C63.4285 241.839 60.7785 239.189 57.5097 239.189C54.2408 239.189 51.5908 241.839 51.5908 245.108C51.5908 248.377 54.2408 251.027 57.5097 251.027Z" fill="#B3B3B3"/>
<path d="M57.5097 298.865C60.7785 298.865 63.4285 296.215 63.4285 292.946C63.4285 289.677 60.7785 287.027 57.5097 287.027C54.2408 287.027 51.5908 289.677 51.5908 292.946C51.5908 296.215 54.2408 298.865 57.5097 298.865Z" fill="#B3B3B3"/>
<path d="M57.5097 107.513C60.7785 107.513 63.4285 104.864 63.4285 101.595C63.4285 98.3257 60.7785 95.6758 57.5097 95.6758C54.2408 95.6758 51.5908 98.3257 51.5908 101.595C51.5908 104.864 54.2408 107.513 57.5097 107.513Z" fill="#B3B3B3"/>
<path d="M57.5097 203.189C60.7785 203.189 63.4285 200.539 63.4285 197.27C63.4285 194.002 60.7785 191.352 57.5097 191.352C54.2408 191.352 51.5908 194.002 51.5908 197.27C51.5908 200.539 54.2408 203.189 57.5097 203.189Z" fill="#B3B3B3"/>
<path d="M109.1 11.8377C112.369 11.8377 115.019 9.18772 115.019 5.91884C115.019 2.64995 112.369 0 109.1 0C105.831 0 103.181 2.64995 103.181 5.91884C103.181 9.18772 105.831 11.8377 109.1 11.8377Z" fill="#B3B3B3"/>
<path d="M109.1 59.6756C112.369 59.6756 115.019 57.0256 115.019 53.7567C115.019 50.4878 112.369 47.8379 109.1 47.8379C105.831 47.8379 103.181 50.4878 103.181 53.7567C103.181 57.0256 105.831 59.6756 109.1 59.6756Z" fill="#B3B3B3"/>
<path d="M109.1 155.351C112.369 155.351 115.019 152.701 115.019 149.433C115.019 146.164 112.369 143.514 109.1 143.514C105.831 143.514 103.181 146.164 103.181 149.433C103.181 152.701 105.831 155.351 109.1 155.351Z" fill="#B3B3B3"/>
<path d="M109.1 251.027C112.369 251.027 115.019 248.377 115.019 245.108C115.019 241.839 112.369 239.189 109.1 239.189C105.831 239.189 103.181 241.839 103.181 245.108C103.181 248.377 105.831 251.027 109.1 251.027Z" fill="#B3B3B3"/>
<path d="M109.1 298.865C112.369 298.865 115.019 296.215 115.019 292.946C115.019 289.677 112.369 287.027 109.1 287.027C105.831 287.027 103.181 289.677 103.181 292.946C103.181 296.215 105.831 298.865 109.1 298.865Z" fill="#B3B3B3"/>
<path d="M109.1 107.513C112.369 107.513 115.019 104.864 115.019 101.595C115.019 98.3257 112.369 95.6758 109.1 95.6758C105.831 95.6758 103.181 98.3257 103.181 101.595C103.181 104.864 105.831 107.513 109.1 107.513Z" fill="#B3B3B3"/>
<path d="M109.1 203.189C112.369 203.189 115.019 200.539 115.019 197.27C115.019 194.002 112.369 191.352 109.1 191.352C105.831 191.352 103.181 194.002 103.181 197.27C103.181 200.539 105.831 203.189 109.1 203.189Z" fill="#B3B3B3"/>
<path d="M160.691 11.8377C163.96 11.8377 166.61 9.18772 166.61 5.91884C166.61 2.64995 163.96 0 160.691 0C157.422 0 154.772 2.64995 154.772 5.91884C154.772 9.18772 157.422 11.8377 160.691 11.8377Z" fill="#B3B3B3"/>
<path d="M160.691 59.6756C163.96 59.6756 166.61 57.0256 166.61 53.7567C166.61 50.4878 163.96 47.8379 160.691 47.8379C157.422 47.8379 154.772 50.4878 154.772 53.7567C154.772 57.0256 157.422 59.6756 160.691 59.6756Z" fill="#B3B3B3"/>
<path d="M160.691 155.351C163.96 155.351 166.61 152.701 166.61 149.433C166.61 146.164 163.96 143.514 160.691 143.514C157.422 143.514 154.772 146.164 154.772 149.433C154.772 152.701 157.422 155.351 160.691 155.351Z" fill="#B3B3B3"/>
<path d="M160.691 251.027C163.96 251.027 166.61 248.377 166.61 245.108C166.61 241.839 163.96 239.189 160.691 239.189C157.422 239.189 154.772 241.839 154.772 245.108C154.772 248.377 157.422 251.027 160.691 251.027Z" fill="#B3B3B3"/>
<path d="M160.691 298.865C163.96 298.865 166.61 296.215 166.61 292.946C166.61 289.677 163.96 287.027 160.691 287.027C157.422 287.027 154.772 289.677 154.772 292.946C154.772 296.215 157.422 298.865 160.691 298.865Z" fill="#B3B3B3"/>
<path d="M160.691 107.513C163.96 107.513 166.61 104.864 166.61 101.595C166.61 98.3257 163.96 95.6758 160.691 95.6758C157.422 95.6758 154.772 98.3257 154.772 101.595C154.772 104.864 157.422 107.513 160.691 107.513Z" fill="#B3B3B3"/>
<path d="M160.691 203.189C163.96 203.189 166.61 200.539 166.61 197.27C166.61 194.002 163.96 191.352 160.691 191.352C157.422 191.352 154.772 194.002 154.772 197.27C154.772 200.539 157.422 203.189 160.691 203.189Z" fill="#B3B3B3"/>
<path d="M212.282 11.8377C215.55 11.8377 218.2 9.18772 218.2 5.91884C218.2 2.64995 215.55 0 212.282 0C209.013 0 206.363 2.64995 206.363 5.91884C206.363 9.18772 209.013 11.8377 212.282 11.8377Z" fill="#B3B3B3"/>
<path d="M212.282 59.6756C215.55 59.6756 218.2 57.0256 218.2 53.7567C218.2 50.4878 215.55 47.8379 212.282 47.8379C209.013 47.8379 206.363 50.4878 206.363 53.7567C206.363 57.0256 209.013 59.6756 212.282 59.6756Z" fill="#B3B3B3"/>
<path d="M212.282 155.351C215.55 155.351 218.2 152.701 218.2 149.433C218.2 146.164 215.55 143.514 212.282 143.514C209.013 143.514 206.363 146.164 206.363 149.433C206.363 152.701 209.013 155.351 212.282 155.351Z" fill="#B3B3B3"/>
<path d="M212.282 251.027C215.55 251.027 218.2 248.377 218.2 245.108C218.2 241.839 215.55 239.189 212.282 239.189C209.013 239.189 206.363 241.839 206.363 245.108C206.363 248.377 209.013 251.027 212.282 251.027Z" fill="#B3B3B3"/>
<path d="M212.282 298.865C215.55 298.865 218.2 296.215 218.2 292.946C218.2 289.677 215.55 287.027 212.282 287.027C209.013 287.027 206.363 289.677 206.363 292.946C206.363 296.215 209.013 298.865 212.282 298.865Z" fill="#B3B3B3"/>
<path d="M212.282 107.513C215.55 107.513 218.2 104.864 218.2 101.595C218.2 98.3257 215.55 95.6758 212.282 95.6758C209.013 95.6758 206.363 98.3257 206.363 101.595C206.363 104.864 209.013 107.513 212.282 107.513Z" fill="#B3B3B3"/>
<path d="M212.282 203.189C215.55 203.189 218.2 200.539 218.2 197.27C218.2 194.002 215.55 191.352 212.282 191.352C209.013 191.352 206.363 194.002 206.363 197.27C206.363 200.539 209.013 203.189 212.282 203.189Z" fill="#B3B3B3"/>
<path d="M263.873 11.8377C267.142 11.8377 269.792 9.18772 269.792 5.91884C269.792 2.64995 267.142 0 263.873 0C260.604 0 257.954 2.64995 257.954 5.91884C257.954 9.18772 260.604 11.8377 263.873 11.8377Z" fill="#B3B3B3"/>
<path d="M263.873 59.6756C267.142 59.6756 269.792 57.0256 269.792 53.7567C269.792 50.4878 267.142 47.8379 263.873 47.8379C260.604 47.8379 257.954 50.4878 257.954 53.7567C257.954 57.0256 260.604 59.6756 263.873 59.6756Z" fill="#B3B3B3"/>
<path d="M263.873 155.351C267.142 155.351 269.792 152.701 269.792 149.433C269.792 146.164 267.142 143.514 263.873 143.514C260.604 143.514 257.954 146.164 257.954 149.433C257.954 152.701 260.604 155.351 263.873 155.351Z" fill="#B3B3B3"/>
<path d="M263.873 251.027C267.142 251.027 269.792 248.377 269.792 245.108C269.792 241.839 267.142 239.189 263.873 239.189C260.604 239.189 257.954 241.839 257.954 245.108C257.954 248.377 260.604 251.027 263.873 251.027Z" fill="#B3B3B3"/>
<path d="M263.873 298.865C267.142 298.865 269.792 296.215 269.792 292.946C269.792 289.677 267.142 287.027 263.873 287.027C260.604 287.027 257.954 289.677 257.954 292.946C257.954 296.215 260.604 298.865 263.873 298.865Z" fill="#B3B3B3"/>
<path d="M263.873 107.513C267.142 107.513 269.792 104.864 269.792 101.595C269.792 98.3257 267.142 95.6758 263.873 95.6758C260.604 95.6758 257.954 98.3257 257.954 101.595C257.954 104.864 260.604 107.513 263.873 107.513Z" fill="#B3B3B3"/>
<path d="M263.873 203.189C267.142 203.189 269.792 200.539 269.792 197.27C269.792 194.002 267.142 191.352 263.873 191.352C260.604 191.352 257.954 194.002 257.954 197.27C257.954 200.539 260.604 203.189 263.873 203.189Z" fill="#B3B3B3"/>
<path d="M315.463 11.8377C318.732 11.8377 321.381 9.18772 321.381 5.91884C321.381 2.64995 318.732 0 315.463 0C312.194 0 309.544 2.64995 309.544 5.91884C309.544 9.18772 312.194 11.8377 315.463 11.8377Z" fill="#B3B3B3"/>
<path d="M315.463 59.6756C318.732 59.6756 321.381 57.0256 321.381 53.7567C321.381 50.4878 318.732 47.8379 315.463 47.8379C312.194 47.8379 309.544 50.4878 309.544 53.7567C309.544 57.0256 312.194 59.6756 315.463 59.6756Z" fill="#B3B3B3"/>
<path d="M315.463 155.351C318.732 155.351 321.381 152.701 321.381 149.433C321.381 146.164 318.732 143.514 315.463 143.514C312.194 143.514 309.544 146.164 309.544 149.433C309.544 152.701 312.194 155.351 315.463 155.351Z" fill="#B3B3B3"/>
<path d="M315.463 251.027C318.732 251.027 321.381 248.377 321.381 245.108C321.381 241.839 318.732 239.189 315.463 239.189C312.194 239.189 309.544 241.839 309.544 245.108C309.544 248.377 312.194 251.027 315.463 251.027Z" fill="#B3B3B3"/>
<path d="M315.463 298.865C318.732 298.865 321.381 296.215 321.381 292.946C321.381 289.677 318.732 287.027 315.463 287.027C312.194 287.027 309.544 289.677 309.544 292.946C309.544 296.215 312.194 298.865 315.463 298.865Z" fill="#B3B3B3"/>
<path d="M315.463 107.513C318.732 107.513 321.381 104.864 321.381 101.595C321.381 98.3257 318.732 95.6758 315.463 95.6758C312.194 95.6758 309.544 98.3257 309.544 101.595C309.544 104.864 312.194 107.513 315.463 107.513Z" fill="#B3B3B3"/>
<path d="M315.463 203.189C318.732 203.189 321.381 200.539 321.381 197.27C321.381 194.002 318.732 191.352 315.463 191.352C312.194 191.352 309.544 194.002 309.544 197.27C309.544 200.539 312.194 203.189 315.463 203.189Z" fill="#B3B3B3"/>
</g>
</svg>
