<svg width="264" height="99" viewBox="0 0 264 99" fill="none" xmlns="http://www.w3.org/2000/svg">
<g clipPath="url(#clip0_1201_100)">
<path d="M29.3605 -8.82016e-07C27.5555 -0.0101991 25.7402 0.16317 24.0065 0.632286L21.8649 8.41349L22.5583 1.1014C22.334 1.19318 22.0994 1.28497 21.8853 1.37675C19.9374 2.2436 18.1833 3.59995 17.0003 5.36424L19.0604 13.2678L16.1641 6.92456C15.2667 9.07637 15.2157 11.5851 16.0417 13.7573C16.9392 16.0927 18.8258 18.0304 21.1408 18.9686L25.9441 10.8305L42.1286 9.59648L49.4203 1.58072C48.0742 1.74389 46.728 1.81527 45.3717 1.79488L36.2953 4.16085L41.9757 1.57052C39.1712 1.25437 36.3973 0.683276 33.603 0.326341L27.2189 6.61861L31.8285 0.132575C31.0024 0.0611881 30.1764 0.0101973 29.3503 0.0101973L29.3605 -8.82016e-07Z" fill="white"/>
<path d="M49.1654 63.3918L46.0141 66.8184L51.6231 59.0576L50.7971 61.5765L49.1654 63.3918Z" fill="white"/>
<path d="M25.9441 31.3288L9.02538 40.6295H0V59.0576L5.60899 66.8184L2.44756 63.3918V78.7197L19.8048 98.9834L19.8864 66.4819L13.7267 61.1992L13.7675 68.9192L12.2582 59.9448L7.55684 55.9166L6.7002 46.3507L12.146 50.124L12.248 46.2997L12.6559 50.4809L25.9441 59.6593V31.3288Z" fill="white"/>
<path d="M25.8422 59.6593V81.3202L22.9867 66.4819L25.373 60.7913L25.8422 59.6593Z" fill="white"/>
<path d="M31.8081 98.9834L31.7265 66.4819L44.0663 55.9166L33.2154 67.155L33.2868 94.9858L49.1654 78.7197L31.8081 98.9834Z" fill="white"/>
<path d="M44.0663 55.9166L44.9331 46.3507L45.0759 56.559L44.0663 55.9166Z" fill="white"/>
<path d="M51.8577 40.6295L42.251 42.1082L27.4127 34.6126L27.3923 56.8344L45.1575 46.3507L25.9136 59.6593L25.9442 31.3288L42.8323 40.6295H51.8577Z" fill="white"/>
<path d="M30.8495 19.7233V22.0892L43.9439 27.0659C40.7111 23.7107 32.1956 20.2638 30.8495 19.7233Z" fill="white"/>
<path d="M21.0286 19.7335C19.9578 20.1516 11.2588 23.6394 7.95458 27.0659C4.55859 30.5843 1.30537 40.14 1.30537 40.14H9.01519L21.0184 33.5316V19.7335H21.0286Z" fill="white"/>
<path d="M25.9441 30.8291V11.7381L21.4569 19.2949V33.297L25.9441 30.8291Z" fill="white"/>
<path d="M154.359 44.6884V49.6957H166.628C167.597 49.6957 168.402 49.7263 169.065 49.7875C169.749 49.8486 170.299 50.0424 170.707 50.3484C171.146 50.6339 171.452 51.0826 171.645 51.7047C171.829 52.3268 171.931 53.2038 171.931 54.3256C171.931 55.4474 171.839 56.2735 171.645 56.9058C171.462 57.4973 171.146 57.946 170.707 58.2621C170.299 58.5783 169.759 58.7618 169.065 58.823C168.413 58.8842 167.597 58.9148 166.628 58.9148H154.359V74.7424H160.54V63.9323H164.568L172.533 74.7424H179.6L171.268 63.7386C172.584 63.5856 173.675 63.3204 174.552 62.9431C175.46 62.5352 176.173 61.9743 176.704 61.2604C177.265 60.5465 177.652 59.6185 177.876 58.4967C178.131 57.3749 178.254 55.9879 178.254 54.3358C178.254 52.2758 178.05 50.6237 177.652 49.3795C177.275 48.0946 176.632 47.1155 175.735 46.4323C174.827 45.749 173.624 45.2901 172.125 45.0759C170.626 44.8311 168.77 44.6986 166.557 44.6986H154.39L154.359 44.6884Z" fill="white"/>
<path d="M99.218 44.6884V49.6957H111.486C112.455 49.6957 113.261 49.7263 113.924 49.7875C114.607 49.8486 115.158 50.0424 115.566 50.3484C116.004 50.6339 116.31 51.0826 116.504 51.7047C116.687 52.3268 116.789 53.2038 116.789 54.3256C116.789 55.4474 116.698 56.2735 116.504 56.9058C116.32 57.4973 116.004 57.946 115.566 58.2621C115.158 58.5783 114.617 58.7618 113.924 58.823C113.271 58.8842 112.455 58.9148 111.486 58.9148H99.218V74.7424H105.398V63.9323H109.426C111.66 63.8711 113.883 63.8099 116.116 63.7487C117.432 63.5958 118.523 63.3306 119.4 62.9533C120.308 62.5454 121.022 61.9845 121.552 61.2706C122.113 60.5567 122.5 59.6287 122.725 58.5069C122.98 57.3851 123.102 55.9981 123.102 54.346C123.102 52.286 122.898 50.6339 122.5 49.3897C122.123 48.1048 121.481 47.1257 120.583 46.4425C119.676 45.7592 118.472 45.3003 116.973 45.0861C115.474 44.8413 113.618 44.7088 111.405 44.7088H99.2384L99.218 44.6884Z" fill="white"/>
<path d="M133.739 61.9233H140.48L138.093 54.1115L137.257 49.3795H136.972L136.125 54.1115L133.739 61.9233ZM140.531 44.6884L151.157 74.7526H144.416L141.795 66.2779H132.382L129.813 74.7526H123.072L133.698 44.6884H140.531Z" fill="white"/>
<path d="M218.7 61.9233H225.441L223.054 54.1115L222.218 49.3795H221.933L221.086 54.1115L218.7 61.9233ZM225.482 44.6884L236.108 74.7526H229.367L226.746 66.2779H217.333L214.763 74.7526H208.022L218.649 44.6884H225.482Z" fill="white"/>
<path d="M71.7543 55.5086V60.5159H84.0227C84.9915 60.5159 85.7972 60.5465 86.4601 60.6077C87.1433 60.6689 87.6941 60.8627 88.102 61.1686C88.5405 61.4542 88.8464 61.9029 89.0402 62.525C89.2238 63.1471 89.3258 64.0241 89.3258 65.1459C89.3258 66.2677 89.234 67.0938 89.0402 67.726C88.8566 68.3175 88.5405 68.7663 88.102 69.0824C87.6941 69.3985 87.1535 69.5821 86.4601 69.6433C85.8074 69.7045 84.9915 69.7351 84.0227 69.7351H71.7543V74.7424H81.9627C84.1961 74.6812 86.4193 74.62 88.6527 74.5588C89.9682 74.4058 91.0594 74.1407 91.9365 73.7634C92.8441 73.3554 93.558 72.7945 94.0883 72.0807C94.6492 71.3668 95.0367 70.4388 95.2611 69.317C95.5161 68.1952 95.6384 66.8082 95.6384 65.1561C95.6384 63.0961 95.4345 61.444 95.0367 60.1998C94.6594 58.9148 94.0169 57.9358 93.1195 57.2525C92.2118 56.5692 91.0085 56.1103 89.5093 55.8962C88.0102 55.6514 86.1541 55.5188 83.9411 55.5188H71.7747L71.7543 55.5086Z" fill="white"/>
<path d="M95.4957 49.7059H71.7543V44.6986H95.4957V49.7059Z" fill="white"/>
<path d="M208.022 49.7059H184.281V44.6986H208.022V49.7059Z" fill="white"/>
<path d="M193.571 74.7322V50.9909H198.579V74.7322H193.571Z" fill="white"/>
</g>
<defs>
<clipPath id="clip0_1201_100">
<rect width="264" height="98.9834" fill="white"/>
</clipPath>
</defs>
</svg>
